<mxfile host="app.diagrams.net" agent="Mozilla/5.0 (Windows NT 10.0; Win64; x64) AppleWebKit/537.36 (KHTML, like Gecko) Chrome/133.0.0.0 Safari/537.36 Edg/133.0.0.0" version="26.0.16">
  <diagram id="YEDw_3GBT1TUWQzDqiz8" name="Seite-1">
    <mxGraphModel dx="927" dy="521" grid="1" gridSize="10" guides="1" tooltips="1" connect="1" arrows="1" fold="1" page="1" pageScale="1" pageWidth="827" pageHeight="1169" math="1" shadow="0">
      <root>
        <mxCell id="0" />
        <mxCell id="1" parent="0" />
        <mxCell id="bhQGCopS53DdL-WW1qbv-2" value="&lt;font style=&quot;color: rgb(0, 0, 0);&quot;&gt;\(\begin{aligned}&lt;br&gt;\min_{x \in \mathcal{X}} \quad &amp;amp; f(x) \\&lt;br&gt;\text{s.t.} \quad &amp;amp; g_i(x) \leq 0,\quad i = 1,\dots, m, \\&lt;br&gt;                &amp;amp; h_j(x) = 0,\quad j = 1,\dots, p\end{aligned}\)&lt;/font&gt;" style="text;html=1;align=center;verticalAlign=middle;whiteSpace=wrap;rounded=0;" parent="1" vertex="1">
          <mxGeometry x="300" y="690" width="240" height="160" as="geometry" />
        </mxCell>
      </root>
    </mxGraphModel>
  </diagram>
</mxfile>
